<svg viewBox="0 0 600 400" xmlns="http://www.w3.org/2000/svg">
<g transform="translate(48, 364)">
<g>
<rect fill="#DD3355" height="10" width="10" x="268.8480447354967" y="-224.63691107265922"/>
<rect fill="#DD3355" height="10" width="10" x="32.52399128908939" y="-164.8530568757499"/>
<rect fill="#DD3355" height="10" width="10" x="434.7994088497623" y="-131.51315471261577"/>
<rect fill="#DD3355" height="10" width="10" x="58.954573321122304" y="-330.41078279516444"/>
<rect fill="#DD3355" height="10" width="10" x="440.747616166669" y="-255.95817891172038"/>
<rect fill="#DD3355" height="10" width="10" x="493.1991339109462" y="-71.61918903125681"/>
<rect fill="#DD3355" height="10" width="10" x="33.30172638705972" y="-229.5924146795191"/>
<rect fill="#DD3355" height="10" width="10" x="426.53278533046176" y="-120.63828805785968"/>
<rect fill="#DD3355" height="10" width="10" x="445.6786803131977" y="-13.361829909956231"/>
<rect fill="#DD3355" height="10" width="10" x="47.08046549258122" y="-156.1366119268328"/>
<rect fill="#DD3355" height="10" width="10" x="285.51998843411974" y="-255.63390131507094"/>
<rect fill="#DD3355" height="10" width="10" x="76.8062888416251" y="-265.3456067676059"/>
<rect fill="#DD3355" height="10" width="10" x="440.2869710943325" y="-22.461190652347668"/>
<rect fill="#DD3355" height="10" width="10" x="222.96879902206564" y="-148.3337705223447"/>
<rect fill="#DD3355" height="10" width="10" x="154.7618219724683" y="-24.83330680607119"/>
<rect fill="#DD3355" height="10" width="10" x="385.8437736053778" y="-251.9795362417996"/>
<rect fill="#DD3355" height="10" width="10" x="125.15879737519779" y="-75.13450661499829"/>
<rect fill="#DD3355" height="10" width="10" x="241.26642680221056" y="-178.6781211736048"/>
<rect fill="#DD3355" height="10" width="10" x="261.25773057428785" y="-168.9090435311653"/>
<rect fill="#DD3355" height="10" width="10" x="185.9903157916841" y="-236.4564640120409"/>
<rect fill="#DD3355" height="10" width="10" x="148.34256871832605" y="-13.445350228790526"/>
<rect fill="#DD3355" height="10" width="10" x="145.26850229499456" y="-83.92627945616272"/>
<rect fill="#DD3355" height="10" width="10" x="181.06511297669806" y="-171.442233187361"/>
<rect fill="#DD3355" height="10" width="10" x="172.3556354477226" y="-200.8963873361141"/>
<rect fill="#DD3355" height="10" width="10" x="26.410373274619843" y="-276.9633751978214"/>
<rect fill="#DD3355" height="10" width="10" x="255.04695977376196" y="-283.55304083299916"/>
<rect fill="#DD3355" height="10" width="10" x="192.3891420720533" y="-197.39024736976575"/>
<rect fill="#DD3355" height="10" width="10" x="186.28442975259824" y="-318.4875513586284"/>
<rect fill="#DD3355" height="10" width="10" x="403.7416868450249" y="-63.173917936437206"/>
<rect fill="#DD3355" height="10" width="10" x="170.88595840039162" y="-127.14209368112813"/>
<rect fill="#DD3355" height="10" width="10" x="337.32376102758695" y="-70.11334866171133"/>
<rect fill="#DD3355" height="10" width="10" x="178.21817719940708" y="-210.03745633185525"/>
<rect fill="#DD3355" height="10" width="10" x="42.986336059720934" y="-292.6093644811081"/>
<rect fill="#DD3355" height="10" width="10" x="57.41150429165581" y="-35.46005988458424"/>
<rect fill="#DD3355" height="10" width="10" x="435.266187925527" y="-52.02681158010664"/>
<rect fill="#DD3355" height="10" width="10" x="448.0854244729717" y="-291.4720642328827"/>
<rect fill="#DD3355" height="10" width="10" x="436.25890642555834" y="-131.70629041555813"/>
<rect fill="#DD3355" height="10" width="10" x="356.90950776659906" y="-67.39170287152488"/>
<rect fill="#DD3355" height="10" width="10" x="89.22874216176508" y="-179.5370859323163"/>
<rect fill="#DD3355" height="10" width="10" x="2.448746693621845" y="-170.86321903900185"/>
<rect fill="#DD3355" height="10" width="10" x="104.10444926671434" y="-35.1334437537794"/>
<rect fill="#DD3355" height="10" width="10" x="314.2922225174182" y="-256.3745100295429"/>
<rect fill="#DD3355" height="10" width="10" x="381.7707329632313" y="-326.61928601032366"/>
<rect fill="#DD3355" height="10" width="10" x="188.28968960436154" y="-22.01360831368285"/>
<rect fill="#DD3355" height="10" width="10" x="339.1650226877602" y="-36.032072804348324"/>
<rect fill="#DD3355" height="10" width="10" x="400.79541258006594" y="-328.5648827590781"/>
<rect fill="#DD3355" height="10" width="10" x="462.77233318627106" y="-217.10905666367117"/>
<rect fill="#DD3355" height="10" width="10" x="448.8401164370731" y="-57.00884493869518"/>
<rect fill="#DD3355" height="10" width="10" x="113.53414437752812" y="-291.74075960164026"/>
<rect fill="#DD3355" height="10" width="10" x="475.1288191395337" y="-214.8724443471577"/>
<rect fill="#DD3355" height="10" width="10" x="380.30417648053253" y="-125.07882012471441"/>
<rect fill="#DD3355" height="10" width="10" x="279.5074003290414" y="-265.61527866278914"/>
<rect fill="#DD3355" height="10" width="10" x="420.96480786497114" y="-316.3732246580024"/>
<rect fill="#DD3355" height="10" width="10" x="35.954452720667206" y="-54.265493091501874"/>
<rect fill="#DD3355" height="10" width="10" x="192.31538545086585" y="-231.02558679593102"/>
<rect fill="#DD3355" height="10" width="10" x="175.50999262219153" y="-128.71976497888025"/>
<rect fill="#DD3355" height="10" width="10" x="107.59095959620561" y="-6.301287841315153"/>
<rect fill="#DD3355" height="10" width="10" x="445.05397748584335" y="-140.0431957202489"/>
<rect fill="#DD3355" height="10" width="10" x="57.263801939090044" y="-129.1413208485715"/>
<rect fill="#DD3355" height="10" width="10" x="327.13982895122894" y="-192.51052160465593"/>
<rect fill="#DD3355" height="10" width="10" x="235.6312301345475" y="-293.84062973717204"/>
<rect fill="#DD3355" height="10" width="10" x="421.72716795691287" y="-107.6163255410062"/>
<rect fill="#DD3355" height="10" width="10" x="167.5495310721294" y="-254.93458055587175"/>
<rect fill="#DD3355" height="10" width="10" x="325.49571892064944" y="-128.74322017141438"/>
<rect fill="#DD3355" height="10" width="10" x="283.2228072683406" y="-169.90843736210417"/>
<rect fill="#DD3355" height="10" width="10" x="455.47238310562136" y="-169.33789451695884"/>
<rect fill="#DD3355" height="10" width="10" x="415.2770390967622" y="-82.64831602187255"/>
<rect fill="#DD3355" height="10" width="10" x="11.988776232210924" y="-231.37382089859875"/>
<rect fill="#DD3355" height="10" width="10" x="210.5374442749996" y="-117.25423843587745"/>
<rect fill="#DD3355" height="10" width="10" x="62.943032065685955" y="-108.19315461414718"/>
<rect fill="#DD3355" height="10" width="10" x="200.7296641931476" y="-254.63986661975008"/>
<rect fill="#DD3355" height="10" width="10" x="217.7939947073732" y="-260.07431731089804"/>
<rect fill="#DD3355" height="10" width="10" x="225.04905143404463" y="-103.44141445624533"/>
<rect fill="#DD3355" height="10" width="10" x="86.34377945899327" y="-331.0663307810218"/>
<rect fill="#DD3355" height="10" width="10" x="166.31965840545206" y="-202.9942241437331"/>
<rect fill="#DD3355" height="10" width="10" x="481.5990891071363" y="-129.09944457221363"/>
<rect fill="#DD3355" height="10" width="10" x="55.47099443893383" y="-285.8735255395919"/>
<rect fill="#DD3355" height="10" width="10" x="395.94014054959086" y="-139.18328625526274"/>
<rect fill="#DD3355" height="10" width="10" x="471.14269573843376" y="-56.797672640896096"/>
<rect fill="#DD3355" height="10" width="10" x="156.7732999539454" y="-284.0447520696396"/>
<rect fill="#DD3355" height="10" width="10" x="76.36345260972683" y="-214.71839286284043"/>
<rect fill="#DD3355" height="10" width="10" x="133.02025025669977" y="-72.18862554447725"/>
<rect fill="#DD3355" height="10" width="10" x="481.46260315540815" y="-8.047246790267991"/>
<rect fill="#DD3355" height="10" width="10" x="379.8723470281265" y="-53.779455684181364"/>
<rect fill="#DD3355" height="10" width="10" x="319.20597915108044" y="-292.1806212362971"/>
<rect fill="#DD3355" height="10" width="10" x="463.7318599401424" y="-114.11697534466325"/>
<rect fill="#DD3355" height="10" width="10" x="183.90888837077503" y="-124.7314548954153"/>
<rect fill="#DD3355" height="10" width="10" x="358.4970863174137" y="-178.4661236661232"/>
<rect fill="#DD3355" height="10" width="10" x="510.63288016012916" y="-336.10151508990623"/>
<rect fill="#DD3355" height="10" width="10" x="489.22337476295615" y="-88.67126032106577"/>
<rect fill="#DD3355" height="10" width="10" x="464.129939996738" y="-17.155524141180347"/>
<rect fill="#DD3355" height="10" width="10" x="185.2048921863945" y="-58.16667834375994"/>
<rect fill="#DD3355" height="10" width="10" x="330.47521608867424" y="-47.24306099298629"/>
<rect fill="#DD3355" height="10" width="10" x="271.51011514542677" y="-238.3254292701975"/>
<rect fill="#DD3355" height="10" width="10" x="422.8024874226473" y="-104.5105167665983"/>
<rect fill="#DD3355" height="10" width="10" x="27.380709095044082" y="-221.4189646393986"/>
<rect fill="#DD3355" height="10" width="10" x="300.48548110316835" y="-333.79764505353376"/>
<rect fill="#DD3355" height="10" width="10" x="411.2467250444491" y="-176.57517423918662"/>
<rect fill="#DD3355" height="10" width="10" x="86.6095161513615" y="-145.2899610929891"/>
<rect fill="#DD3355" height="10" width="10" x="507.85444843868845" y="-258.45791862869896"/>
</g>
<g>
<g>
<line stroke="black" stroke-width="1" x1="0" x2="0" y1="0" y2="10"/>
<line stroke="black" stroke-width="1" x1="104" x2="104" y1="0" y2="10"/>
<line stroke="black" stroke-width="1" x1="208" x2="208" y1="0" y2="10"/>
<line stroke="black" stroke-width="1" x1="312" x2="312" y1="0" y2="10"/>
<line stroke="black" stroke-width="1" x1="416" x2="416" y1="0" y2="10"/>
<line stroke="black" stroke-width="1" x1="520" x2="520" y1="0" y2="10"/>
</g>
<line stroke="black" stroke-width="1" x1="0" x2="520" y1="0" y2="0"/>
<g>
<text font-size="12" text-anchor="middle" x="0" y="20">
0
</text>
<text font-size="12" text-anchor="middle" x="104" y="20">
2
</text>
<text font-size="12" text-anchor="middle" x="208" y="20">
4
</text>
<text font-size="12" text-anchor="middle" x="312" y="20">
6
</text>
<text font-size="12" text-anchor="middle" x="416" y="20">
8
</text>
<text font-size="12" text-anchor="middle" x="520" y="20">
10
</text>
</g>
<text font-size="12" text-anchor="middle" x="260" y="30">

</text>
</g>
<g>
<g>
<line stroke="black" stroke-width="1" x1="0" x2="-10" y1="0" y2="0"/>
<line stroke="black" stroke-width="1" x1="0" x2="-10" y1="-68" y2="-68"/>
<line stroke="black" stroke-width="1" x1="0" x2="-10" y1="-136" y2="-136"/>
<line stroke="black" stroke-width="1" x1="0" x2="-10" y1="-204" y2="-204"/>
<line stroke="black" stroke-width="1" x1="0" x2="-10" y1="-272" y2="-272"/>
<line stroke="black" stroke-width="1" x1="0" x2="-10" y1="-340" y2="-340"/>
</g>
<line stroke="black" stroke-width="1" x1="0" x2="0" y1="0" y2="-340"/>
<g>
<text dominant-baseline="middle" font-size="12" text-anchor="end" x="-15" y="0">
0
</text>
<text dominant-baseline="middle" font-size="12" text-anchor="end" x="-15" y="-68">
2
</text>
<text dominant-baseline="middle" font-size="12" text-anchor="end" x="-15" y="-136">
4
</text>
<text dominant-baseline="middle" font-size="12" text-anchor="end" x="-15" y="-204">
6
</text>
<text dominant-baseline="middle" font-size="12" text-anchor="end" x="-15" y="-272">
8
</text>
<text dominant-baseline="middle" font-size="12" text-anchor="end" x="-15" y="-340">
10
</text>
</g>
<text font-size="12" text-anchor="middle" transform="rotate(-90 -30 -170)" x="-30" y="-170">

</text>
</g>
</g>
</svg>