<svg viewBox="0 0 600 400" xmlns="http://www.w3.org/2000/svg">
<g transform="translate(48, 364)">
<g>
<rect fill="#DD3355" height="10" width="10" x="317.45378541618425" y="-291.5314357632964"/>
<rect fill="#DD3355" height="10" width="10" x="184.72042579999902" y="-342.5020442075684"/>
<rect fill="#DD3355" height="10" width="10" x="208.73416728309743" y="-251.886177009983"/>
<rect fill="#DD3355" height="10" width="10" x="335.4996123081637" y="-332.74243136996927"/>
<rect fill="#DD3355" height="10" width="10" x="226.52926029864184" y="-165.97180424839178"/>
<rect fill="#DD3355" height="10" width="10" x="290.2464419189594" y="-114.74439001887978"/>
<rect fill="#DD3355" height="10" width="10" x="253.06768286324967" y="-12.341665635582952"/>
<rect fill="#DD3355" height="10" width="10" x="465.17808855829617" y="-321.89370359578743"/>
<rect fill="#DD3355" height="10" width="10" x="120.81585873066942" y="-278.7292110962662"/>
<rect fill="#DD3355" height="10" width="10" x="408.580719752052" y="-18.41083362228927"/>
<rect fill="#DD3355" height="10" width="10" x="353.999201977559" y="-67.6819463883489"/>
<rect fill="#DD3355" height="10" width="10" x="58.906492602967504" y="-217.46768424995486"/>
<rect fill="#DD3355" height="10" width="10" x="473.92145451989654" y="-42.47683623051964"/>
<rect fill="#DD3355" height="10" width="10" x="118.93263509381916" y="-172.1215527501501"/>
<rect fill="#DD3355" height="10" width="10" x="198.366560792842" y="-163.23867978236783"/>
<rect fill="#DD3355" height="10" width="10" x="278.34531227632675" y="-72.25229432228285"/>
<rect fill="#DD3355" height="10" width="10" x="490.60542686359787" y="-26.614019040119512"/>
<rect fill="#DD3355" height="10" width="10" x="33.10050172807007" y="-308.60647953610226"/>
<rect fill="#DD3355" height="10" width="10" x="493.800776155323" y="-252.5286639170343"/>
<rect fill="#DD3355" height="10" width="10" x="44.442017791835084" y="-166.03285868612096"/>
<rect fill="#DD3355" height="10" width="10" x="148.99963266460162" y="-294.8816932895249"/>
<rect fill="#DD3355" height="10" width="10" x="194.64295658044117" y="-175.831682867467"/>
<rect fill="#DD3355" height="10" width="10" x="311.9182794993902" y="-33.09002831304229"/>
<rect fill="#DD3355" height="10" width="10" x="208.32089367751695" y="-271.47239331165713"/>
<rect fill="#DD3355" height="10" width="10" x="472.76038212834527" y="-93.45804231753024"/>
<rect fill="#DD3355" height="10" width="10" x="273.74593720431005" y="-63.498452205086394"/>
<rect fill="#DD3355" height="10" width="10" x="331.209900586785" y="-29.855751646989816"/>
<rect fill="#DD3355" height="10" width="10" x="324.81498274354294" y="-272.1075627481222"/>
<rect fill="#DD3355" height="10" width="10" x="193.39113449084874" y="-92.0425607284264"/>
<rect fill="#DD3355" height="10" width="10" x="513.5473890382624" y="-19.81316155974152"/>
<rect fill="#DD3355" height="10" width="10" x="248.18404702248736" y="-271.76543135892655"/>
<rect fill="#DD3355" height="10" width="10" x="327.8023776530177" y="-182.1794666936834"/>
<rect fill="#DD3355" height="10" width="10" x="51.93545422428271" y="-343.5285806135331"/>
<rect fill="#DD3355" height="10" width="10" x="449.37876866317765" y="-139.08673494912202"/>
<rect fill="#DD3355" height="10" width="10" x="226.98230333335363" y="-290.2394351558808"/>
<rect fill="#DD3355" height="10" width="10" x="90.89578144342275" y="-170.9045374199807"/>
<rect fill="#DD3355" height="10" width="10" x="162.29536433792651" y="-298.2909824862525"/>
<rect fill="#DD3355" height="10" width="10" x="40.483576113246116" y="-340.99384364618464"/>
<rect fill="#DD3355" height="10" width="10" x="185.20466469580842" y="-82.77394107963718"/>
<rect fill="#DD3355" height="10" width="10" x="7.1161792333723515" y="-175.11793361560734"/>
<rect fill="#DD3355" height="10" width="10" x="289.4145198433993" y="-35.84830995244655"/>
<rect fill="#DD3355" height="10" width="10" x="15.547433050890412" y="-98.14057593318924"/>
<rect fill="#DD3355" height="10" width="10" x="76.48141147630652" y="-124.59387815117509"/>
<rect fill="#DD3355" height="10" width="10" x="440.6791822833226" y="-32.320102380021936"/>
<rect fill="#DD3355" height="10" width="10" x="345.5566259208329" y="-319.9877705592582"/>
<rect fill="#DD3355" height="10" width="10" x="285.94882885662605" y="-221.48546009462106"/>
<rect fill="#DD3355" height="10" width="10" x="338.097754931615" y="-157.48359238620435"/>
<rect fill="#DD3355" height="10" width="10" x="289.29073316366987" y="-282.04291986327627"/>
<rect fill="#DD3355" height="10" width="10" x="118.34920280407421" y="-43.47490740059534"/>
<rect fill="#DD3355" height="10" width="10" x="340.55500999810016" y="-302.3843610388648"/>
<rect fill="#DD3355" height="10" width="10" x="367.53027022867093" y="-206.3718294469673"/>
<rect fill="#DD3355" height="10" width="10" x="224.48274418436478" y="-106.08734567473351"/>
<rect fill="#DD3355" height="10" width="10" x="237.94640855577222" y="-165.62079982676983"/>
<rect fill="#DD3355" height="10" width="10" x="391.7300685578545" y="-321.92821110725356"/>
<rect fill="#DD3355" height="10" width="10" x="106.5270696714285" y="-212.44159273568093"/>
<rect fill="#DD3355" height="10" width="10" x="375.2485498553653" y="-34.98702114070558"/>
<rect fill="#DD3355" height="10" width="10" x="256.91168649960974" y="-198.82686855359415"/>
<rect fill="#DD3355" height="10" width="10" x="177.00591437207183" y="-302.94914205792804"/>
<rect fill="#DD3355" height="10" width="10" x="270.65818498070007" y="-343.2754824523415"/>
<rect fill="#DD3355" height="10" width="10" x="362.22911866853167" y="-338.3174260963759"/>
<rect fill="#DD3355" height="10" width="10" x="149.38474484858338" y="-227.25912872045075"/>
<rect fill="#DD3355" height="10" width="10" x="119.04607687172276" y="-73.03668592219529"/>
<rect fill="#DD3355" height="10" width="10" x="98.91280339942082" y="-245.20770930331463"/>
<rect fill="#DD3355" height="10" width="10" x="438.94010576220535" y="-63.752587299556545"/>
<rect fill="#DD3355" height="10" width="10" x="452.5732111434735" y="-23.32578359549311"/>
<rect fill="#DD3355" height="10" width="10" x="411.15368354638656" y="-209.28380008711497"/>
<rect fill="#DD3355" height="10" width="10" x="245.31569613210536" y="-294.13338849147266"/>
<rect fill="#DD3355" height="10" width="10" x="325.4289659211442" y="-18.991973512058344"/>
<rect fill="#DD3355" height="10" width="10" x="468.2363359996046" y="-180.4455151592367"/>
<rect fill="#DD3355" height="10" width="10" x="34.65939589833743" y="-17.337583813918403"/>
<rect fill="#DD3355" height="10" width="10" x="1.5029575867304246" y="-238.81098870662527"/>
<rect fill="#DD3355" height="10" width="10" x="378.9917269409024" y="-174.7146852009257"/>
<rect fill="#DD3355" height="10" width="10" x="424.53875524140057" y="-215.90587616953508"/>
<rect fill="#DD3355" height="10" width="10" x="509.509099420858" y="-67.71580404220006"/>
<rect fill="#DD3355" height="10" width="10" x="223.3151020720705" y="-11.30698940849616"/>
<rect fill="#DD3355" height="10" width="10" x="433.0355379405096" y="-142.90369263829635"/>
<rect fill="#DD3355" height="10" width="10" x="105.62290196172088" y="-22.21536228375656"/>
<rect fill="#DD3355" height="10" width="10" x="139.5254509114393" y="-169.0110888318187"/>
<rect fill="#DD3355" height="10" width="10" x="83.00717427617244" y="-132.01899598666296"/>
<rect fill="#DD3355" height="10" width="10" x="56.807523340024474" y="-256.88823046620354"/>
<rect fill="#DD3355" height="10" width="10" x="404.8025184489731" y="-115.69962871948894"/>
<rect fill="#DD3355" height="10" width="10" x="1.5294522601977345" y="-204.25190849331867"/>
<rect fill="#DD3355" height="10" width="10" x="350.38578519418263" y="-28.757316873155975"/>
<rect fill="#DD3355" height="10" width="10" x="230.38670997207538" y="-66.31803560638906"/>
<rect fill="#DD3355" height="10" width="10" x="390.4397441554956" y="-281.5537257757365"/>
<rect fill="#DD3355" height="10" width="10" x="111.00074061771411" y="-326.15288936667855"/>
<rect fill="#DD3355" height="10" width="10" x="69.28832694495627" y="-20.298770874715924"/>
<rect fill="#DD3355" height="10" width="10" x="492.60665900977966" y="-46.81256998501842"/>
<rect fill="#DD3355" height="10" width="10" x="58.01485590554129" y="-339.39317543861495"/>
<rect fill="#DD3355" height="10" width="10" x="378.8461151623692" y="-284.7838714092785"/>
<rect fill="#DD3355" height="10" width="10" x="215.25315239231122" y="-37.340303749436295"/>
<rect fill="#DD3355" height="10" width="10" x="25.67029762577573" y="-11.60426732139602"/>
<rect fill="#DD3355" height="10" width="10" x="156.84759154984724" y="-204.3402372201338"/>
<rect fill="#DD3355" height="10" width="10" x="486.5642459670536" y="-32.697514815293594"/>
<rect fill="#DD3355" height="10" width="10" x="380.8783771135479" y="-122.50528822358612"/>
<rect fill="#DD3355" height="10" width="10" x="416.5397642120887" y="-301.82485664302084"/>
<rect fill="#DD3355" height="10" width="10" x="413.15090220648574" y="-19.489168356194448"/>
<rect fill="#DD3355" height="10" width="10" x="4.1433228504929165" y="-296.284593017409"/>
<rect fill="#DD3355" height="10" width="10" x="23.142273025902096" y="-283.71134081927244"/>
<rect fill="#DD3355" height="10" width="10" x="15.944631324924476" y="-132.9942301560574"/>
</g>
<g>
<g>
<line stroke="black" stroke-width="1" x1="0" x2="0" y1="0" y2="10"/>
<line stroke="black" stroke-width="1" x1="104" x2="104" y1="0" y2="10"/>
<line stroke="black" stroke-width="1" x1="208" x2="208" y1="0" y2="10"/>
<line stroke="black" stroke-width="1" x1="312" x2="312" y1="0" y2="10"/>
<line stroke="black" stroke-width="1" x1="416" x2="416" y1="0" y2="10"/>
<line stroke="black" stroke-width="1" x1="520" x2="520" y1="0" y2="10"/>
</g>
<line stroke="black" stroke-width="1" x1="0" x2="520" y1="0" y2="0"/>
<g>
<text font-size="12" text-anchor="middle" x="0" y="20">
0
</text>
<text font-size="12" text-anchor="middle" x="104" y="20">
2
</text>
<text font-size="12" text-anchor="middle" x="208" y="20">
4
</text>
<text font-size="12" text-anchor="middle" x="312" y="20">
6
</text>
<text font-size="12" text-anchor="middle" x="416" y="20">
8
</text>
<text font-size="12" text-anchor="middle" x="520" y="20">
10
</text>
</g>
<text font-size="12" text-anchor="middle" x="260" y="30">

</text>
</g>
<g>
<g>
<line stroke="black" stroke-width="1" x1="0" x2="-10" y1="0" y2="0"/>
<line stroke="black" stroke-width="1" x1="0" x2="-10" y1="-68" y2="-68"/>
<line stroke="black" stroke-width="1" x1="0" x2="-10" y1="-136" y2="-136"/>
<line stroke="black" stroke-width="1" x1="0" x2="-10" y1="-204" y2="-204"/>
<line stroke="black" stroke-width="1" x1="0" x2="-10" y1="-272" y2="-272"/>
<line stroke="black" stroke-width="1" x1="0" x2="-10" y1="-340" y2="-340"/>
</g>
<line stroke="black" stroke-width="1" x1="0" x2="0" y1="0" y2="-340"/>
<g>
<text dominant-baseline="middle" font-size="12" text-anchor="end" x="-15" y="0">
0
</text>
<text dominant-baseline="middle" font-size="12" text-anchor="end" x="-15" y="-68">
2
</text>
<text dominant-baseline="middle" font-size="12" text-anchor="end" x="-15" y="-136">
4
</text>
<text dominant-baseline="middle" font-size="12" text-anchor="end" x="-15" y="-204">
6
</text>
<text dominant-baseline="middle" font-size="12" text-anchor="end" x="-15" y="-272">
8
</text>
<text dominant-baseline="middle" font-size="12" text-anchor="end" x="-15" y="-340">
10
</text>
</g>
<text font-size="12" text-anchor="middle" transform="rotate(-90 -30 -170)" x="-30" y="-170">

</text>
</g>
</g>
</svg>