<svg viewBox="0 0 600 400" xmlns="http://www.w3.org/2000/svg">
<g transform="translate(48, 364)">
<g>
<rect fill="#DD3355" height="10" width="10" x="450.70174591049454" y="-80.72130517584532"/>
<rect fill="#DD3355" height="10" width="10" x="228.62474066497845" y="-136.37889591532476"/>
<rect fill="#DD3355" height="10" width="10" x="189.3906312216968" y="-134.0892995782895"/>
<rect fill="#DD3355" height="10" width="10" x="417.2380208988422" y="-278.8069367266964"/>
<rect fill="#DD3355" height="10" width="10" x="147.80510770566184" y="-162.42537458859573"/>
<rect fill="#DD3355" height="10" width="10" x="393.11452566722403" y="-313.3781993949575"/>
<rect fill="#DD3355" height="10" width="10" x="465.6047320980568" y="-203.52330293828888"/>
<rect fill="#DD3355" height="10" width="10" x="510.14960582836443" y="-30.475982462203657"/>
<rect fill="#DD3355" height="10" width="10" x="329.68793775230574" y="-68.42093703141396"/>
<rect fill="#DD3355" height="10" width="10" x="217.05577673922215" y="-264.64969551375356"/>
<rect fill="#DD3355" height="10" width="10" x="502.92539771525463" y="-218.8928952122573"/>
<rect fill="#DD3355" height="10" width="10" x="36.9814647649563" y="-226.60146483446633"/>
<rect fill="#DD3355" height="10" width="10" x="123.13214482564598" y="-88.89069545468587"/>
<rect fill="#DD3355" height="10" width="10" x="350.7444598441749" y="-287.1936067957618"/>
<rect fill="#DD3355" height="10" width="10" x="489.3210853861812" y="-84.69744436634167"/>
<rect fill="#DD3355" height="10" width="10" x="38.62640001199219" y="-232.362406927314"/>
<rect fill="#DD3355" height="10" width="10" x="413.1791818814464" y="-337.17684937122414"/>
<rect fill="#DD3355" height="10" width="10" x="420.00834962450415" y="-201.1516122262438"/>
<rect fill="#DD3355" height="10" width="10" x="18.41303350062335" y="-321.29608336583664"/>
<rect fill="#DD3355" height="10" width="10" x="41.05475075214948" y="-185.04013121097847"/>
<rect fill="#DD3355" height="10" width="10" x="511.8362053669041" y="-23.110189061814772"/>
<rect fill="#DD3355" height="10" width="10" x="14.443394445360159" y="-60.95991138365666"/>
<rect fill="#DD3355" height="10" width="10" x="311.8366716289853" y="-49.69088123403387"/>
<rect fill="#DD3355" height="10" width="10" x="113.10635567892386" y="-71.19514753149114"/>
<rect fill="#DD3355" height="10" width="10" x="302.1940591293763" y="-86.2947525383951"/>
<rect fill="#DD3355" height="10" width="10" x="301.9629678505972" y="-309.7983629039587"/>
<rect fill="#DD3355" height="10" width="10" x="272.28029648297115" y="-92.53155136899422"/>
<rect fill="#DD3355" height="10" width="10" x="64.56390411915584" y="-321.842815291798"/>
<rect fill="#DD3355" height="10" width="10" x="246.33847245933666" y="-171.05139718056273"/>
<rect fill="#DD3355" height="10" width="10" x="338.6236372091495" y="-183.6617275188817"/>
<rect fill="#DD3355" height="10" width="10" x="124.33904610325285" y="-88.21837984770482"/>
<rect fill="#DD3355" height="10" width="10" x="434.2908640021686" y="-277.8125931949613"/>
<rect fill="#DD3355" height="10" width="10" x="13.153659643884488" y="-161.43744188021134"/>
<rect fill="#DD3355" height="10" width="10" x="352.5228530752616" y="-262.18103595482944"/>
<rect fill="#DD3355" height="10" width="10" x="88.88036521538595" y="-177.51808933271707"/>
<rect fill="#DD3355" height="10" width="10" x="459.94395513406863" y="-129.49941744112147"/>
<rect fill="#DD3355" height="10" width="10" x="490.8107660826787" y="-280.2987461340699"/>
<rect fill="#DD3355" height="10" width="10" x="34.26355708257479" y="-203.80382560258988"/>
<rect fill="#DD3355" height="10" width="10" x="432.6909669734321" y="-223.75433770133432"/>
<rect fill="#DD3355" height="10" width="10" x="354.76213884503284" y="-167.08543730186017"/>
<rect fill="#DD3355" height="10" width="10" x="298.23084049387035" y="-115.45788468540646"/>
<rect fill="#DD3355" height="10" width="10" x="416.7146478218136" y="-95.33464043209685"/>
<rect fill="#DD3355" height="10" width="10" x="331.07867909921623" y="-281.6825291883401"/>
<rect fill="#DD3355" height="10" width="10" x="86.80437092554686" y="-203.89709956304569"/>
<rect fill="#DD3355" height="10" width="10" x="101.61749539474002" y="-245.69371007441023"/>
<rect fill="#DD3355" height="10" width="10" x="347.87292263922836" y="-276.6163331935779"/>
<rect fill="#DD3355" height="10" width="10" x="76.48879904029657" y="-239.65281942556095"/>
<rect fill="#DD3355" height="10" width="10" x="241.8930495255983" y="-70.37061567948531"/>
<rect fill="#DD3355" height="10" width="10" x="272.86116530189395" y="-322.4945040160866"/>
<rect fill="#DD3355" height="10" width="10" x="464.9889387092083" y="-73.27628966583754"/>
<rect fill="#DD3355" height="10" width="10" x="68.32301228840666" y="-23.245058342813024"/>
<rect fill="#DD3355" height="10" width="10" x="495.6382034075383" y="-180.89081187723227"/>
<rect fill="#DD3355" height="10" width="10" x="431.5433472728617" y="-158.40222781317635"/>
<rect fill="#DD3355" height="10" width="10" x="439.3459289001612" y="-94.54031475992944"/>
<rect fill="#DD3355" height="10" width="10" x="360.4974161198255" y="-218.3825450048245"/>
<rect fill="#DD3355" height="10" width="10" x="415.08992287173743" y="-223.9954167438863"/>
<rect fill="#DD3355" height="10" width="10" x="77.1687217844055" y="-218.36916429938546"/>
<rect fill="#DD3355" height="10" width="10" x="175.02967995510963" y="-288.10822259392205"/>
<rect fill="#DD3355" height="10" width="10" x="10.619528425552456" y="-326.0999118911404"/>
<rect fill="#DD3355" height="10" width="10" x="476.1144345282096" y="-126.87516787191467"/>
<rect fill="#DD3355" height="10" width="10" x="3.8529553795694262" y="-228.97488343862452"/>
<rect fill="#DD3355" height="10" width="10" x="420.320929978824" y="-264.76137583857826"/>
<rect fill="#DD3355" height="10" width="10" x="31.17513141804322" y="-57.70738020258567"/>
<rect fill="#DD3355" height="10" width="10" x="497.66915331631344" y="-141.611788233425"/>
<rect fill="#DD3355" height="10" width="10" x="306.9154152279918" y="-298.2067009414072"/>
<rect fill="#DD3355" height="10" width="10" x="105.32701450663212" y="-242.72908352139513"/>
<rect fill="#DD3355" height="10" width="10" x="206.06931296277102" y="-118.085117961426"/>
<rect fill="#DD3355" height="10" width="10" x="256.22870950481416" y="-217.8291333454646"/>
<rect fill="#DD3355" height="10" width="10" x="432.6588838899057" y="-39.717884611435025"/>
<rect fill="#DD3355" height="10" width="10" x="66.61903446236215" y="-339.65610696507747"/>
<rect fill="#DD3355" height="10" width="10" x="367.1381222983364" y="-56.07504569642593"/>
<rect fill="#DD3355" height="10" width="10" x="354.0569286359429" y="-276.9641154955519"/>
<rect fill="#DD3355" height="10" width="10" x="456.1317275065462" y="-53.23330823636571"/>
<rect fill="#DD3355" height="10" width="10" x="101.12932091104827" y="-223.7411297257162"/>
<rect fill="#DD3355" height="10" width="10" x="361.6423950735844" y="-13.885382038451892"/>
<rect fill="#DD3355" height="10" width="10" x="86.36199449538678" y="-171.57407567401208"/>
<rect fill="#DD3355" height="10" width="10" x="364.89481105599145" y="-228.11611052717794"/>
<rect fill="#DD3355" height="10" width="10" x="330.84487914384715" y="-146.20962173580054"/>
<rect fill="#DD3355" height="10" width="10" x="257.90439743347304" y="-195.47987564911148"/>
<rect fill="#DD3355" height="10" width="10" x="393.27456370348335" y="-245.38436277817226"/>
<rect fill="#DD3355" height="10" width="10" x="165.58311588936286" y="-194.10090406078817"/>
<rect fill="#DD3355" height="10" width="10" x="106.81142649825388" y="-312.1894353115149"/>
<rect fill="#DD3355" height="10" width="10" x="354.8502684103813" y="-104.9987385315424"/>
<rect fill="#DD3355" height="10" width="10" x="330.2620160341937" y="-185.2482897542905"/>
<rect fill="#DD3355" height="10" width="10" x="471.16327182163593" y="-40.57104346021832"/>
<rect fill="#DD3355" height="10" width="10" x="477.58366376377955" y="-69.510189605565"/>
<rect fill="#DD3355" height="10" width="10" x="233.96539339675172" y="-18.527171955023334"/>
<rect fill="#DD3355" height="10" width="10" x="459.63902693649544" y="-41.86754639992951"/>
<rect fill="#DD3355" height="10" width="10" x="211.47868624976815" y="-71.63526942100295"/>
<rect fill="#DD3355" height="10" width="10" x="388.79345650133865" y="-58.85229943483087"/>
<rect fill="#DD3355" height="10" width="10" x="423.9591091489201" y="-86.6965637603816"/>
<rect fill="#DD3355" height="10" width="10" x="254.13895296157432" y="-168.5526511531022"/>
<rect fill="#DD3355" height="10" width="10" x="289.8066410511512" y="-24.67239907041399"/>
<rect fill="#DD3355" height="10" width="10" x="91.20239873393807" y="-131.31587176279254"/>
<rect fill="#DD3355" height="10" width="10" x="456.3006113427132" y="-305.36487512346764"/>
<rect fill="#DD3355" height="10" width="10" x="193.38270183062414" y="-101.80170888915472"/>
<rect fill="#DD3355" height="10" width="10" x="234.22965993598342" y="-215.62087273339836"/>
<rect fill="#DD3355" height="10" width="10" x="118.09227061960257" y="-288.3060117652678"/>
<rect fill="#DD3355" height="10" width="10" x="376.1367765483354" y="-79.81841852654784"/>
<rect fill="#DD3355" height="10" width="10" x="10.659177691166244" y="-333.5585052142992"/>
</g>
<g>
<g>
<line stroke="black" stroke-width="1" x1="0" x2="0" y1="0" y2="10"/>
<line stroke="black" stroke-width="1" x1="104" x2="104" y1="0" y2="10"/>
<line stroke="black" stroke-width="1" x1="208" x2="208" y1="0" y2="10"/>
<line stroke="black" stroke-width="1" x1="312" x2="312" y1="0" y2="10"/>
<line stroke="black" stroke-width="1" x1="416" x2="416" y1="0" y2="10"/>
<line stroke="black" stroke-width="1" x1="520" x2="520" y1="0" y2="10"/>
</g>
<line stroke="black" stroke-width="1" x1="0" x2="520" y1="0" y2="0"/>
<g>
<text font-size="12" text-anchor="middle" x="0" y="20">
0
</text>
<text font-size="12" text-anchor="middle" x="104" y="20">
2
</text>
<text font-size="12" text-anchor="middle" x="208" y="20">
4
</text>
<text font-size="12" text-anchor="middle" x="312" y="20">
6
</text>
<text font-size="12" text-anchor="middle" x="416" y="20">
8
</text>
<text font-size="12" text-anchor="middle" x="520" y="20">
10
</text>
</g>
<text font-size="12" text-anchor="middle" x="260" y="30">

</text>
</g>
<g>
<g>
<line stroke="black" stroke-width="1" x1="0" x2="-10" y1="0" y2="0"/>
<line stroke="black" stroke-width="1" x1="0" x2="-10" y1="-68" y2="-68"/>
<line stroke="black" stroke-width="1" x1="0" x2="-10" y1="-136" y2="-136"/>
<line stroke="black" stroke-width="1" x1="0" x2="-10" y1="-204" y2="-204"/>
<line stroke="black" stroke-width="1" x1="0" x2="-10" y1="-272" y2="-272"/>
<line stroke="black" stroke-width="1" x1="0" x2="-10" y1="-340" y2="-340"/>
</g>
<line stroke="black" stroke-width="1" x1="0" x2="0" y1="0" y2="-340"/>
<g>
<text dominant-baseline="middle" font-size="12" text-anchor="end" x="-15" y="0">
0
</text>
<text dominant-baseline="middle" font-size="12" text-anchor="end" x="-15" y="-68">
2
</text>
<text dominant-baseline="middle" font-size="12" text-anchor="end" x="-15" y="-136">
4
</text>
<text dominant-baseline="middle" font-size="12" text-anchor="end" x="-15" y="-204">
6
</text>
<text dominant-baseline="middle" font-size="12" text-anchor="end" x="-15" y="-272">
8
</text>
<text dominant-baseline="middle" font-size="12" text-anchor="end" x="-15" y="-340">
10
</text>
</g>
<text font-size="12" text-anchor="middle" transform="rotate(-90 -30 -170)" x="-30" y="-170">

</text>
</g>
</g>
</svg>